HIERARCHY
ROOT Hips
{
	OFFSET 0.000000 97.167313 0.000000
	CHANNELS 6 Xposition Yposition Zposition Xrotation Yrotation Zrotation
	JOINT Spine
	{
		OFFSET 0.000000 13.784798 0.064400
		CHANNELS 3 Xrotation Yrotation Zrotation
		JOINT Spine1
		{
			OFFSET 0.000000 12.037903 0.404700
			CHANNELS 3 Xrotation Yrotation Zrotation
			JOINT Spine2
			{
				OFFSET 0.000000 17.795601 0.420200
				CHANNELS 3 Xrotation Yrotation Zrotation
				JOINT Neck
				{
					OFFSET 0.000000 39.131302 11.954600
					CHANNELS 3 Xrotation Yrotation Zrotation
					JOINT Head
					{
						OFFSET 0.000000 14.456192 15.627699
						CHANNELS 3 Xrotation Yrotation Zrotation
						JOINT HeadTop_End
						{
							OFFSET 0.000000 15.703506 7.603401
							CHANNELS 3 Xrotation Yrotation Zrotation
							End Site
							{
								OFFSET 0.000000 17.447403 0.000000
							}
						}
					}
				}
				JOINT LeftShoulder
				{
					OFFSET 17.399500 24.608795 1.168800
					CHANNELS 3 Xrotation Yrotation Zrotation
					JOINT LeftArm
					{
						OFFSET 18.980635 5.765305 1.818600
						CHANNELS 3 Xrotation Yrotation Zrotation
						JOINT LeftForeArm
						{
							OFFSET 49.290169 0.000000 0.000000
							CHANNELS 3 Xrotation Yrotation Zrotation
							JOINT LeftHand
							{
								OFFSET 31.562012 0.000000 0.000000
								CHANNELS 3 Xrotation Yrotation Zrotation
								JOINT LeftHandThumb1
								{
									OFFSET 6.133995 -4.388519 7.076070
									CHANNELS 3 Xrotation Yrotation Zrotation
									JOINT LeftHandThumb2
									{
										OFFSET 6.037666 -3.485840 3.485847
										CHANNELS 3 Xrotation Yrotation Zrotation
										JOINT LeftHandThumb3
										{
											OFFSET 6.496506 -3.750763 3.750761
											CHANNELS 3 Xrotation Yrotation Zrotation
											JOINT LeftHandThumb4
											{
												OFFSET 5.616882 -3.242905 3.242910
												CHANNELS 3 Xrotation Yrotation Zrotation
												End Site
												{
													OFFSET -1.254608 7.132141 0.375429
												}
											}
										}
									}
								}
								JOINT LeftHandPinky1
								{
									OFFSET 18.920792 -0.453171 -11.426712
									CHANNELS 3 Xrotation Yrotation Zrotation
									JOINT LeftHandPinky2
									{
										OFFSET 4.919586 0.000000 0.000000
										CHANNELS 3 Xrotation Yrotation Zrotation
										JOINT LeftHandPinky3
										{
											OFFSET 5.233047 0.000000 0.000000
											CHANNELS 3 Xrotation Yrotation Zrotation
											JOINT LeftHandPinky4
											{
												OFFSET 5.571716 0.000000 0.000000
												CHANNELS 3 Xrotation Yrotation Zrotation
												End Site
												{
													OFFSET -3.459808 4.342407 -0.466164
												}
											}
										}
									}
								}
								JOINT LeftHandRing1
								{
									OFFSET 22.726120 -0.094986 -6.500475
									CHANNELS 3 Xrotation Yrotation Zrotation
									JOINT LeftHandRing2
									{
										OFFSET 6.408615 0.000000 0.000000
										CHANNELS 3 Xrotation Yrotation Zrotation
										JOINT LeftHandRing3
										{
											OFFSET 6.150223 0.000000 0.000000
											CHANNELS 3 Xrotation Yrotation Zrotation
											JOINT LeftHandRing4
											{
												OFFSET 6.145386 0.000000 0.000000
												CHANNELS 3 Xrotation Yrotation Zrotation
												End Site
												{
													OFFSET -3.671402 4.923981 -0.202372
												}
											}
										}
									}
								}
								JOINT LeftHandMiddle1
								{
									OFFSET 23.373947 0.000000 0.000001
									CHANNELS 3 Xrotation Yrotation Zrotation
									JOINT LeftHandMiddle2
									{
										OFFSET 6.996567 0.000000 0.000000
										CHANNELS 3 Xrotation Yrotation Zrotation
										JOINT LeftHandMiddle3
										{
											OFFSET 7.015945 0.000000 0.000000
											CHANNELS 3 Xrotation Yrotation Zrotation
											JOINT LeftHandMiddle4
											{
												OFFSET 7.721573 0.000000 0.000000
												CHANNELS 3 Xrotation Yrotation Zrotation
												End Site
												{
													OFFSET -4.651108 6.158463 0.251582
												}
											}
										}
									}
								}
								JOINT LeftHandIndex1
								{
									OFFSET 21.310577 -0.490082 6.209344
									CHANNELS 3 Xrotation Yrotation Zrotation
									JOINT LeftHandIndex2
									{
										OFFSET 7.536453 0.000000 0.000000
										CHANNELS 3 Xrotation Yrotation Zrotation
										JOINT LeftHandIndex3
										{
											OFFSET 7.512344 0.000000 0.000000
											CHANNELS 3 Xrotation Yrotation Zrotation
											JOINT LeftHandIndex4
											{
												OFFSET 10.212402 0.000000 0.000001
												CHANNELS 3 Xrotation Yrotation Zrotation
												End Site
												{
													OFFSET -5.180801 8.690506 1.388433
												}
											}
										}
									}
								}
							}
						}
					}
				}
				JOINT RightShoulder
				{
					OFFSET -17.399500 24.608795 1.168800
					CHANNELS 3 Xrotation Yrotation Zrotation
					JOINT RightArm
					{
						OFFSET -18.980635 5.765305 1.818600
						CHANNELS 3 Xrotation Yrotation Zrotation
						JOINT RightForeArm
						{
							OFFSET -49.290169 0.000000 0.000000
							CHANNELS 3 Xrotation Yrotation Zrotation
							JOINT RightHand
							{
								OFFSET -31.562012 0.000000 0.000000
								CHANNELS 3 Xrotation Yrotation Zrotation
								JOINT RightHandThumb1
								{
									OFFSET -6.133995 -4.388519 7.076070
									CHANNELS 3 Xrotation Yrotation Zrotation
									JOINT RightHandThumb2
									{
										OFFSET -6.037666 -3.485840 3.485847
										CHANNELS 3 Xrotation Yrotation Zrotation
										JOINT RightHandThumb3
										{
											OFFSET -6.496506 -3.750763 3.750761
											CHANNELS 3 Xrotation Yrotation Zrotation
											JOINT RightHandThumb4
											{
												OFFSET -5.616882 -3.242905 3.242910
												CHANNELS 3 Xrotation Yrotation Zrotation
												End Site
												{
													OFFSET 1.254608 7.132141 0.375429
												}
											}
										}
									}
								}
								JOINT RightHandIndex1
								{
									OFFSET -21.310577 -0.490082 6.209344
									CHANNELS 3 Xrotation Yrotation Zrotation
									JOINT RightHandIndex2
									{
										OFFSET -7.536453 0.000000 0.000000
										CHANNELS 3 Xrotation Yrotation Zrotation
										JOINT RightHandIndex3
										{
											OFFSET -7.512344 0.000000 0.000000
											CHANNELS 3 Xrotation Yrotation Zrotation
											JOINT RightHandIndex4
											{
												OFFSET -10.212402 0.000000 0.000001
												CHANNELS 3 Xrotation Yrotation Zrotation
												End Site
												{
													OFFSET 5.180801 8.690506 1.388433
												}
											}
										}
									}
								}
								JOINT RightHandMiddle1
								{
									OFFSET -23.373947 0.000000 0.000001
									CHANNELS 3 Xrotation Yrotation Zrotation
									JOINT RightHandMiddle2
									{
										OFFSET -6.996567 0.000000 0.000000
										CHANNELS 3 Xrotation Yrotation Zrotation
										JOINT RightHandMiddle3
										{
											OFFSET -7.015945 0.000000 0.000000
											CHANNELS 3 Xrotation Yrotation Zrotation
											JOINT RightHandMiddle4
											{
												OFFSET -7.721573 0.000000 0.000000
												CHANNELS 3 Xrotation Yrotation Zrotation
												End Site
												{
													OFFSET 4.651108 6.158463 0.251582
												}
											}
										}
									}
								}
								JOINT RightHandRing1
								{
									OFFSET -22.726120 -0.094986 -6.500475
									CHANNELS 3 Xrotation Yrotation Zrotation
									JOINT RightHandRing2
									{
										OFFSET -6.408615 0.000000 0.000000
										CHANNELS 3 Xrotation Yrotation Zrotation
										JOINT RightHandRing3
										{
											OFFSET -6.150223 0.000000 0.000000
											CHANNELS 3 Xrotation Yrotation Zrotation
											JOINT RightHandRing4
											{
												OFFSET -6.145386 0.000000 0.000000
												CHANNELS 3 Xrotation Yrotation Zrotation
												End Site
												{
													OFFSET 3.671402 4.923981 -0.202372
												}
											}
										}
									}
								}
								JOINT RightHandPinky1
								{
									OFFSET -18.920792 -0.453171 -11.426712
									CHANNELS 3 Xrotation Yrotation Zrotation
									JOINT RightHandPinky2
									{
										OFFSET -4.919586 0.000000 0.000000
										CHANNELS 3 Xrotation Yrotation Zrotation
										JOINT RightHandPinky3
										{
											OFFSET -5.233047 0.000000 0.000000
											CHANNELS 3 Xrotation Yrotation Zrotation
											JOINT RightHandPinky4
											{
												OFFSET -5.571716 0.000000 0.000000
												CHANNELS 3 Xrotation Yrotation Zrotation
												End Site
												{
													OFFSET 3.459808 4.342407 -0.466164
												}
											}
										}
									}
								}
							}
						}
					}
				}
			}
		}
	}
	JOINT LeftUpLeg
	{
		OFFSET 19.899099 -7.885101 -3.429500
		CHANNELS 3 Xrotation Yrotation Zrotation
		JOINT LeftLeg
		{
			OFFSET 1.745560 -36.997807 10.304700
			CHANNELS 3 Xrotation Yrotation Zrotation
			JOINT LeftFoot
			{
				OFFSET -1.745558 -29.803308 -13.615400
				CHANNELS 3 Xrotation Yrotation Zrotation
				JOINT LeftToeBase
				{
					OFFSET 1.181900 -18.539904 15.226099
					CHANNELS 3 Xrotation Yrotation Zrotation
					JOINT LeftToe_End
					{
						OFFSET -0.863701 1.402801 16.534700
						CHANNELS 3 Xrotation Yrotation Zrotation
						End Site
						{
							OFFSET 0.000000 16.616566 0.000000
						}
					}
				}
			}
		}
	}
	JOINT RightUpLeg
	{
		OFFSET -19.899099 -7.885101 -3.429500
		CHANNELS 3 Xrotation Yrotation Zrotation
		JOINT RightLeg
		{
			OFFSET -1.745560 -36.997807 10.304700
			CHANNELS 3 Xrotation Yrotation Zrotation
			JOINT RightFoot
			{
				OFFSET 1.745558 -29.803308 -13.615400
				CHANNELS 3 Xrotation Yrotation Zrotation
				JOINT RightToeBase
				{
					OFFSET -1.181900 -18.539904 15.226099
					CHANNELS 3 Xrotation Yrotation Zrotation
					JOINT RightToe_End
					{
						OFFSET 0.863701 1.402801 16.534700
						CHANNELS 3 Xrotation Yrotation Zrotation
						End Site
						{
							OFFSET 0.000000 16.616566 0.000000
						}
					}
				}
			}
		}
	}
}
MOTION
Frames: 4
Frame Time: 0.033333
-0.240748 77.851311 3.328842 12.842854 -9.766061 -2.430001 14.443594 4.101092 4.778257 11.642072 -3.626384 3.209508 -0.004519 -1.158206 4.230956 -12.550006 6.403382 -8.470276 -20.140546 6.682230 -0.775743 -0.000000 -0.000000 0.000000 4.508853 -14.797501 13.152533 -91.375029 5.907733 -30.352357 -5.088243 -68.314808 -3.373362 -45.830624 8.018988 18.691986 17.551520 -5.699219 -12.932310 10.850536 26.127697 8.644712 20.926933 51.115934 0.218688 0.000002 -0.000000 -0.000002 10.022929 13.629114 -84.750258 0.877143 0.062227 -64.595490 1.141219 1.253128 -55.016487 0.000000 0.000001 -0.000004 8.574349 2.179151 -75.148938 -0.207804 1.009409 -57.854994 0.443135 1.742152 -53.581236 -0.000000 -0.000002 -0.000000 7.504726 1.174431 -63.778490 1.807809 1.475731 -64.567896 0.130343 -0.912247 -43.272476 0.000002 0.000000 0.000004 13.980888 1.201498 -55.004330 0.370696 1.161753 -65.441907 1.983948 2.148033 -57.665054 -0.000000 0.000001 0.000001 7.277514 11.828117 6.628857 -2.312226 -16.942482 47.140733 37.424447 98.692081 -38.991740 -4.555356 14.784892 5.569917 -4.753665 -14.523882 0.666516 7.954430 -19.890460 -3.562954 8.516045 -21.366556 -3.731416 0.000000 -0.000001 -0.000003 4.228066 -6.347615 23.845722 1.627830 0.827119 60.704228 0.005033 -0.015243 35.284306 -0.000002 -0.000003 -0.000004 1.469594 -11.828404 44.905062 0.014154 -0.023183 62.745751 0.017176 -0.017552 25.654373 -0.000005 0.000005 -0.000009 3.825363 -17.731794 74.670333 0.002490 -0.016838 41.057766 0.004603 -0.014870 34.522334 -0.000003 0.000005 -0.000003 0.087048 -23.338698 86.640574 0.013510 -0.022950 60.989266 0.008222 -0.026869 48.740155 0.000000 0.000000 0.000007 -56.574498 0.711816 18.221536 72.691087 8.736573 -9.190523 -7.229410 -3.824091 0.553894 -8.374358 0.636025 -4.312302 -0.000001 -0.000000 -0.000000 -38.091258 1.062238 6.077181 52.379058 0.856703 -2.416027 -27.173219 0.895200 -3.889200 -2.196624 -0.185178 4.867225 0.000000 -0.000000 -0.000000 
-0.264691 75.928703 -5.323982 11.165441 -10.775258 -4.243949 13.987430 3.913587 6.256850 12.586120 -3.778424 3.731897 0.964429 -1.308806 4.761743 -13.632599 7.607888 -9.785791 -19.789925 6.978619 -0.447254 -0.000000 -0.000000 -0.000000 4.747262 -14.327807 14.266365 -91.482352 6.687847 -30.361010 -0.215947 -67.077785 2.037762 -46.584718 10.718770 19.742687 17.551525 -5.699223 -12.932311 10.850539 26.127693 8.644709 20.926935 51.115940 0.218685 -0.000000 -0.000003 -0.000000 10.022932 13.629112 -84.750258 0.877146 0.062225 -64.595490 1.141217 1.253131 -55.016477 -0.000000 0.000001 -0.000000 8.574350 2.179148 -75.148938 -0.207801 1.009408 -57.854994 0.443137 1.742153 -53.581239 -0.000000 -0.000000 -0.000000 7.504725 1.174432 -63.778490 1.807803 1.475732 -64.567896 0.130342 -0.912247 -43.272476 -0.000000 -0.000000 0.000008 13.980883 1.201494 -55.004326 0.370699 1.161754 -65.441907 1.983946 2.148033 -57.665047 -0.000001 0.000000 0.000006 7.889061 14.089992 7.094026 -2.137467 -24.032543 44.865126 48.711126 101.012371 -47.798460 -4.457679 15.511887 3.795188 -5.920691 -12.526376 0.167904 7.721872 -19.287894 -3.495476 8.093115 -20.264321 -3.612638 -0.000000 -0.000001 0.000002 4.234377 -6.411408 22.238625 1.458830 0.508918 52.824536 0.003903 -0.013622 30.968033 0.000003 -0.000001 -0.000001 1.451243 -11.754321 42.732901 0.011468 -0.021581 55.835055 0.008611 -0.016044 23.736125 -0.000003 0.000001 -0.000002 3.609100 -18.331321 72.255895 0.003359 -0.015174 36.790722 0.003994 -0.013943 32.112992 0.000002 0.000001 -0.000005 -0.135355 -23.055444 83.887263 0.012172 -0.022165 57.617939 0.007541 -0.022532 46.656022 0.000003 0.000004 0.000001 -45.898595 5.505262 19.955812 82.276793 3.047796 -7.150608 -9.111105 -4.347727 2.991304 -23.059245 3.264420 -5.377089 0.000000 0.000001 -0.000000 -47.335110 -1.322612 8.942648 54.175274 1.114705 -2.513755 -17.889005 1.030683 -4.810063 -2.272300 -0.193609 5.034649 0.000000 0.000000 -0.000000 
-0.247824 74.455414 -14.192457 9.207935 -10.748228 -4.799318 12.928348 3.089788 6.002687 13.576203 -4.236984 4.553784 2.024827 -1.797011 5.603388 -11.745645 8.548666 -11.488958 -20.924792 6.968664 0.398707 0.000000 -0.000000 -0.000000 4.979996 -13.918005 15.322250 -90.743714 7.366002 -31.427674 4.577630 -64.337438 7.177872 -47.035329 12.176019 20.177376 17.551523 -5.699220 -12.932307 10.850536 26.127697 8.644711 20.926926 51.115934 0.218689 0.000001 -0.000001 -0.000005 10.022929 13.629117 -84.750258 0.877145 0.062226 -64.595490 1.141217 1.253130 -55.016484 0.000000 -0.000000 -0.000000 8.574348 2.179151 -75.148931 -0.207804 1.009410 -57.854994 0.443135 1.742152 -53.581236 -0.000001 -0.000001 0.000007 7.504725 1.174433 -63.778490 1.807803 1.475733 -64.567896 0.130345 -0.912247 -43.272479 0.000000 -0.000002 0.000008 13.980885 1.201498 -55.004323 0.370700 1.161755 -65.441907 1.983953 2.148029 -57.665047 -0.000000 0.000002 -0.000004 6.926473 14.149817 8.889360 1.492118 -25.927417 41.906752 43.727592 102.488518 -42.391067 -5.214137 16.302432 1.287934 -7.345567 -10.358419 -0.346392 7.408103 -18.474511 -3.400258 7.571525 -18.904497 -3.455253 -0.000000 -0.000001 0.000001 4.243487 -6.490888 20.370740 1.205278 0.228044 43.653324 0.002737 -0.011599 25.894306 -0.000005 -0.000003 -0.000001 1.438828 -11.731579 40.237847 0.008645 -0.019367 47.893129 0.003714 -0.014797 21.536638 0.000001 0.000000 -0.000004 3.298150 -19.055746 69.510664 0.002303 -0.013183 31.860510 0.003328 -0.012828 29.256279 -0.000000 0.000002 -0.000005 -0.349914 -22.777096 80.830180 0.010739 -0.021219 53.854283 0.006662 -0.021756 44.329188 0.000001 -0.000002 -0.000001 -31.702921 8.401468 17.757655 84.361463 -2.108920 -6.806939 -6.721451 -4.930679 4.852138 -31.112509 1.137043 -1.507435 0.000001 0.000000 -0.000000 -54.898943 -2.777234 9.911518 52.651695 0.747190 -2.555816 -6.753760 0.964695 -5.077805 -2.399583 -0.204460 5.316824 -0.000000 -0.000000 0.000000 
-0.356129 74.334755 -23.262697 7.350527 -9.840286 -4.021108 11.532285 1.261181 4.292425 14.347019 -5.180346 5.313380 2.917508 -2.775983 6.392204 -6.794381 9.302781 -13.236386 -23.620273 7.466811 1.675104 0.000000 0.000000 0.000000 5.288636 -13.928273 15.983927 -89.804639 8.380474 -31.634414 7.785935 -61.116792 10.320797 -47.043112 12.651453 19.499756 17.551520 -5.699221 -12.932311 10.850542 26.127697 8.644713 20.926926 51.115937 0.218688 0.000001 0.000001 0.000001 10.022930 13.629113 -84.750258 0.877144 0.062229 -64.595490 1.141217 1.253131 -55.016481 -0.000001 -0.000000 -0.000000 8.574348 2.179150 -75.148931 -0.207805 1.009408 -57.855001 0.443135 1.742152 -53.581236 -0.000001 0.000001 0.000005 7.504726 1.174434 -63.778490 1.807807 1.475732 -64.567896 0.130342 -0.912249 -43.272476 0.000002 0.000000 0.000004 13.980886 1.201498 -55.004326 0.370695 1.161752 -65.441907 1.983947 2.148033 -57.665054 -0.000003 0.000001 -0.000001 5.068384 12.637380 11.520047 8.093774 -24.983869 39.032318 31.516125 103.797736 -31.208941 -6.486260 17.263674 -1.630543 -8.850229 -8.135425 -0.771267 7.072047 -17.603216 -3.293026 7.022620 -17.474586 -3.276940 0.000001 -0.000002 0.000002 4.255154 -6.580979 18.431178 0.896769 0.038537 34.123540 0.001730 -0.009409 20.610746 0.000002 0.000002 0.000001 1.429632 -11.740986 37.655478 0.006075 -0.016654 39.665624 0.003135 -0.013901 19.259265 0.000002 -0.000004 -0.000004 2.906081 -19.820893 66.657729 0.001311 -0.011014 26.746659 0.002698 -0.011629 26.275663 -0.000003 0.000001 -0.000005 -0.539082 -22.534703 77.701516 0.009306 -0.020122 49.982081 0.005783 -0.020939 41.935227 0.000000 -0.000001 0.000004 -13.026712 9.031512 13.031362 79.477365 -4.323414 -7.470629 -11.952442 -4.235828 1.577419 -18.070637 -0.712552 1.965734 -0.000001 -0.000000 0.000000 -59.323581 -2.845660 9.330035 45.866547 0.266765 -2.510201 6.306663 0.981384 -5.210745 -2.433437 -0.207291 5.391803 0.000000 -0.000000 -0.000000 
